<svg width="962" height="308" viewBox="0 0 962 308" fill="none" xmlns="http://www.w3.org/2000/svg">
<path d="M52 38.0381C46.4167 38.0381 41.6094 40.111 37.5833 44.2464C33.5521 48.387 31.5417 53.3662 31.5417 59.1839C31.5417 65.1006 33.5521 70.1318 37.5833 74.2673C41.6094 78.4079 46.4167 80.4756 52 80.4756C54.6927 80.4756 57.2396 80.1423 59.6458 79.4756C62.0469 78.8089 63.8021 78.137 64.9167 77.4548L66.4375 76.4548L76.5 97.0798C75.7188 97.6527 74.6302 98.3506 73.2292 99.1839C71.8229 100.017 68.6354 101.163 63.6667 102.621C58.6927 104.08 53.3542 104.809 47.6458 104.809C35.0052 104.809 23.901 100.366 14.3333 91.4756C4.77604 82.5902 0 71.9339 0 59.5173C0 46.9912 4.77604 36.2256 14.3333 27.2256C23.901 18.2256 35.0052 13.7256 47.6458 13.7256C53.3542 13.7256 58.6094 14.4027 63.4167 15.7464C68.2188 17.0798 71.6302 18.4131 73.6458 19.7464L76.5 21.7673L66.4375 42.0589C62.7396 39.3818 57.9271 38.0381 52 38.0381Z" fill="black"/>
<path d="M86.0628 91.6423C78.0055 82.8662 73.9795 72.1006 73.9795 59.3506C73.9795 46.6006 78.0055 35.8089 86.0628 26.9756C94.1149 18.1423 104.344 13.7256 116.75 13.7256C128.167 13.7256 137.563 17.3037 144.938 24.4548V16.2256H174.625V102.288H145.271V92.5589H144.938C137.563 100.726 128.167 104.809 116.75 104.809C104.344 104.809 94.1149 100.424 86.0628 91.6423ZM111.313 44.7464C107.448 48.5537 105.521 53.4235 105.521 59.3506C105.521 65.2673 107.36 70.1006 111.042 73.8506C114.735 77.6006 119.604 79.4756 125.646 79.4756C131.464 79.4756 136.24 77.5745 139.979 73.7673C143.729 69.9652 145.604 65.1579 145.604 59.3506C145.604 53.4235 143.672 48.5537 139.813 44.7464C135.964 40.9443 131.24 39.0381 125.646 39.0381C119.948 39.0381 115.172 40.9443 111.313 44.7464Z" fill="black"/>
<path d="M186.377 102.288V16.2256H216.064V25.2881H216.398C224.117 17.5798 232.34 13.7256 241.064 13.7256C245.314 13.7256 249.533 14.2881 253.731 15.4131C257.924 16.5277 261.95 18.2568 265.814 20.6006C269.674 22.9495 272.804 26.2777 275.21 30.5798C277.611 34.887 278.814 39.887 278.814 45.5798V102.288H249.127V53.6423C249.127 49.1735 247.695 45.262 244.835 41.9131C241.986 38.5537 238.273 36.8714 233.689 36.8714C229.215 36.8714 225.158 38.611 221.523 42.0798C217.882 45.5381 216.064 49.3923 216.064 53.6423V102.288H186.377Z" fill="black"/>
<path d="M334.667 38.0381C329.083 38.0381 324.276 40.111 320.25 44.2464C316.219 48.387 314.208 53.3662 314.208 59.1839C314.208 65.1006 316.219 70.1318 320.25 74.2673C324.276 78.4079 329.083 80.4756 334.667 80.4756C337.359 80.4756 339.906 80.1423 342.312 79.4756C344.713 78.8089 346.469 78.137 347.583 77.4548L349.104 76.4548L359.167 97.0798C358.385 97.6527 357.297 98.3506 355.896 99.1839C354.489 100.017 351.302 101.163 346.333 102.621C341.359 104.08 336.021 104.809 330.312 104.809C317.672 104.809 306.568 100.366 297 91.4756C287.443 82.5902 282.667 71.9339 282.667 59.5173C282.667 46.9912 287.443 36.2256 297 27.2256C306.568 18.2256 317.672 13.7256 330.312 13.7256C336.021 13.7256 341.276 14.4027 346.083 15.7464C350.885 17.0798 354.297 18.4131 356.312 19.7464L359.167 21.7673L349.104 42.0589C345.406 39.3818 340.594 38.0381 334.667 38.0381Z" fill="black"/>
<path d="M449.917 63.3714H387.521C387.521 69.4131 389.469 73.887 393.376 76.7881C397.292 79.6943 401.548 81.1423 406.146 81.1423C410.949 81.1423 414.751 80.5068 417.542 79.2256C420.334 77.9339 423.521 75.387 427.105 71.5798L448.584 82.3298C439.636 97.3193 424.761 104.809 403.959 104.809C390.985 104.809 379.855 100.366 370.563 91.4756C361.282 82.5902 356.646 71.8818 356.646 59.3506C356.646 46.8245 361.282 36.0902 370.563 27.1423C379.855 18.1995 390.985 13.7256 403.959 13.7256C417.594 13.7256 428.693 17.6735 437.251 25.5589C445.803 33.4339 450.084 44.6995 450.084 59.3506C450.084 61.3662 450.027 62.7048 449.917 63.3714ZM388.355 46.9339H421.063C420.396 42.4652 418.631 39.0277 415.771 36.6214C412.923 34.2204 409.261 33.0173 404.792 33.0173C399.876 33.0173 395.959 34.3037 393.042 36.8714C390.136 39.4443 388.574 42.7985 388.355 46.9339Z" fill="black"/>
<path d="M455.623 102.288V16.2256H485.311V28.6423H485.644C485.878 28.1995 486.248 27.6423 486.748 26.9756C487.248 26.2985 488.337 25.1214 490.019 23.4548C491.696 21.7777 493.482 20.2673 495.373 18.9339C497.274 17.5902 499.732 16.387 502.748 15.3298C505.774 14.262 508.857 13.7256 511.998 13.7256C515.232 13.7256 518.415 14.1735 521.54 15.0589C524.675 15.9495 526.977 16.8454 528.436 17.7464L530.769 19.0798L518.373 44.2464C514.675 41.1214 509.529 39.5589 502.936 39.5589C499.352 39.5589 496.274 40.3454 493.706 41.9131C491.133 43.4704 489.316 45.3662 488.248 47.6006C487.191 49.8402 486.436 51.7412 485.977 53.3089C485.529 54.8818 485.311 56.111 485.311 56.9964V102.288H455.623Z" fill="black"/>
<path d="M605.603 13.7256C610.52 13.7256 615.379 14.2881 620.186 15.4131C624.988 16.5277 628.572 17.637 630.936 18.7464L634.457 20.4339L624.728 39.8923C618.02 36.3089 611.645 34.5173 605.603 34.5173C602.238 34.5173 599.858 34.887 598.457 35.6214C597.067 36.3454 596.374 37.7152 596.374 39.7256C596.374 40.1735 596.426 40.6162 596.541 41.0589C596.65 41.5068 596.874 41.9287 597.207 42.3298C597.541 42.7204 597.843 43.0537 598.124 43.3298C598.416 43.611 598.895 43.9131 599.561 44.2464C600.228 44.5798 600.754 44.8298 601.145 44.9964C601.546 45.1631 602.192 45.4235 603.082 45.7673C603.968 46.1006 604.634 46.3506 605.082 46.5173C605.541 46.6839 606.296 46.9339 607.353 47.2673C608.421 47.6006 609.233 47.8245 609.791 47.9339C613.259 48.9495 616.28 50.0745 618.853 51.3089C621.421 52.5329 624.129 54.2048 626.978 56.3298C629.837 58.4548 632.046 61.1423 633.603 64.3923C635.171 67.6318 635.957 71.3193 635.957 75.4548C635.957 95.0277 622.363 104.809 595.186 104.809C589.046 104.809 583.207 103.856 577.666 101.955C572.124 100.054 568.124 98.1527 565.666 96.2464L561.978 93.2256L574.061 72.9339C574.947 73.7152 576.124 74.637 577.582 75.7048C579.041 76.762 581.666 78.2152 585.457 80.0589C589.259 81.9079 592.567 82.8298 595.374 82.8298C601.509 82.8298 604.582 80.762 604.582 76.6214C604.582 74.7204 603.796 73.2412 602.228 72.1839C600.671 71.1162 598.02 69.9131 594.27 68.5798C590.52 67.236 587.582 65.9964 585.457 64.8714C580.093 62.0798 575.843 58.9287 572.707 55.4131C569.582 51.887 568.02 47.2152 568.02 41.3923C568.02 32.6735 571.4 25.8818 578.166 21.0173C584.926 16.1579 594.072 13.7256 605.603 13.7256Z" fill="black"/>
<path d="M670.354 16.2256V57.1631C670.354 65.6631 671.636 71.7048 674.209 75.2881C676.776 78.861 681.136 80.6423 687.292 80.6423C693.443 80.6423 697.802 78.861 700.375 75.2881C702.943 71.7048 704.229 65.6631 704.229 57.1631V16.2256H733.938V64.3714C733.938 78.6943 730.214 89.012 722.771 95.3298C715.339 101.653 703.511 104.809 687.292 104.809C671.084 104.809 659.256 101.653 651.813 95.3298C644.381 89.012 640.667 78.6943 640.667 64.3714V16.2256H670.354Z" fill="black"/>
<path d="M931.039 13.7256C935.955 13.7256 940.815 14.2881 945.622 15.4131C950.424 16.5277 954.007 17.637 956.372 18.7464L959.893 20.4339L950.164 39.8923C943.455 36.3089 937.08 34.5173 931.039 34.5173C927.674 34.5173 925.294 34.887 923.893 35.6214C922.502 36.3454 921.809 37.7152 921.809 39.7256C921.809 40.1735 921.861 40.6162 921.976 41.0589C922.085 41.5068 922.309 41.9287 922.643 42.3298C922.976 42.7204 923.278 43.0537 923.559 43.3298C923.851 43.611 924.33 43.9131 924.997 44.2464C925.664 44.5798 926.19 44.8298 926.58 44.9964C926.981 45.1631 927.627 45.4235 928.518 45.7673C929.403 46.1006 930.07 46.3506 930.518 46.5173C930.976 46.6839 931.731 46.9339 932.789 47.2673C933.856 47.6006 934.669 47.8245 935.226 47.9339C938.695 48.9495 941.716 50.0745 944.289 51.3089C946.856 52.5329 949.565 54.2048 952.414 56.3298C955.273 58.4548 957.481 61.1423 959.039 64.3923C960.606 67.6318 961.393 71.3193 961.393 75.4548C961.393 95.0277 947.799 104.809 920.622 104.809C914.481 104.809 908.643 103.856 903.101 101.955C897.559 100.054 893.559 98.1527 891.101 96.2464L887.414 93.2256L899.497 72.9339C900.382 73.7152 901.559 74.637 903.018 75.7048C904.476 76.762 907.101 78.2152 910.893 80.0589C914.695 81.9079 918.002 82.8298 920.809 82.8298C926.945 82.8298 930.018 80.762 930.018 76.6214C930.018 74.7204 929.231 73.2412 927.664 72.1839C926.106 71.1162 923.455 69.9131 919.705 68.5798C915.955 67.236 913.018 65.9964 910.893 64.8714C905.528 62.0798 901.278 58.9287 898.143 55.4131C895.018 51.887 893.455 47.2152 893.455 41.3923C893.455 32.6735 896.835 25.8818 903.601 21.0173C910.361 16.1579 919.507 13.7256 931.039 13.7256Z" fill="black"/>
<path d="M6.2085 261.655V175.592H35.896V188.009H36.2293C36.4637 187.566 36.8335 187.009 37.3335 186.342C37.8335 185.665 38.922 184.488 40.6043 182.821C42.2814 181.144 44.0679 179.634 45.9585 178.301C47.8595 176.957 50.3179 175.754 53.3335 174.696C56.3595 173.629 59.4429 173.092 62.5835 173.092C65.8179 173.092 69.0002 173.54 72.1252 174.426C75.2606 175.316 77.5627 176.212 79.021 177.113L81.3543 178.446L68.9585 203.613C65.2606 200.488 60.1147 198.926 53.521 198.926C49.9377 198.926 46.8595 199.712 44.2918 201.28C41.7189 202.837 39.9012 204.733 38.8335 206.967C37.7762 209.207 37.021 211.108 36.5627 212.676C36.1147 214.249 35.896 215.478 35.896 216.363V261.655H6.2085Z" fill="black"/>
<path d="M84.2166 127.634C87.6854 124.165 91.826 122.426 96.6333 122.426C101.435 122.426 105.571 124.165 109.029 127.634C112.498 131.092 114.237 135.233 114.237 140.051C114.237 144.858 112.498 148.998 109.029 152.467C105.571 155.926 101.435 157.655 96.6333 157.655C91.826 157.655 87.6854 155.926 84.2166 152.467C80.7427 148.998 79.0083 144.858 79.0083 140.051C79.0083 135.233 80.7427 131.092 84.2166 127.634ZM81.3625 175.592V261.655H111.05V175.592H81.3625Z" fill="black"/>
<path d="M129.512 251.009C121.454 242.233 117.428 231.467 117.428 218.717C117.428 205.967 121.454 195.176 129.512 186.342C137.564 177.509 147.793 173.092 160.199 173.092C171.616 173.092 181.012 176.67 188.387 183.822V117.384H218.074V261.655H188.72V251.926H188.387C181.012 260.092 171.616 264.176 160.199 264.176C147.793 264.176 137.564 259.79 129.512 251.009ZM154.762 204.113C150.897 207.92 148.97 212.79 148.97 218.717C148.97 224.634 150.808 229.467 154.491 233.217C158.183 236.967 163.053 238.842 169.095 238.842C174.913 238.842 179.689 236.941 183.428 233.134C187.178 229.332 189.053 224.525 189.053 218.717C189.053 212.79 187.121 207.92 183.262 204.113C179.413 200.311 174.689 198.405 169.095 198.405C163.397 198.405 158.621 200.311 154.762 204.113Z" fill="black"/>
<path d="M232.68 127.634C236.148 124.165 240.289 122.426 245.096 122.426C249.898 122.426 254.034 124.165 257.492 127.634C260.961 131.092 262.7 135.233 262.7 140.051C262.7 144.858 260.961 148.998 257.492 152.467C254.034 155.926 249.898 157.655 245.096 157.655C240.289 157.655 236.148 155.926 232.68 152.467C229.206 148.998 227.471 144.858 227.471 140.051C227.471 135.233 229.206 131.092 232.68 127.634ZM229.825 175.592V261.655H259.513V175.592H229.825Z" fill="black"/>
<path d="M272.099 261.655V175.592H301.787V184.655H302.12C309.839 176.946 318.063 173.092 326.787 173.092C331.037 173.092 335.255 173.655 339.453 174.78C343.646 175.894 347.672 177.624 351.537 179.967C355.396 182.316 358.526 185.644 360.932 189.946C363.333 194.254 364.537 199.254 364.537 204.946V261.655H334.849V213.009C334.849 208.54 333.417 204.629 330.557 201.28C327.708 197.92 323.995 196.238 319.412 196.238C314.938 196.238 310.88 197.978 307.245 201.446C303.604 204.905 301.787 208.759 301.787 213.009V261.655H272.099Z" fill="black"/>
<path d="M370.743 282.801L395.056 270.884C399.54 278.259 407.316 281.946 418.389 281.946C423.525 281.946 428.306 280.29 432.722 276.988C437.139 273.696 439.347 268.639 439.347 261.821V255.446C434.097 261.269 424.702 264.176 411.16 264.176C398.754 264.176 388.525 259.79 380.472 251.009C372.415 242.233 368.389 231.467 368.389 218.717C368.389 205.967 372.415 195.176 380.472 186.342C388.525 177.509 398.754 173.092 411.16 173.092C422.243 173.092 431.472 176.504 438.847 183.321H439.347V175.592H469.035V264.009C469.035 277.978 464.394 288.764 455.118 296.363C445.837 303.972 433.597 307.78 418.389 307.78C393.775 307.78 377.894 299.452 370.743 282.801ZM405.722 204.113C401.858 207.92 399.931 212.79 399.931 218.717C399.931 224.634 401.769 229.467 405.452 233.217C409.144 236.967 414.014 238.842 420.056 238.842C425.874 238.842 430.65 236.941 434.389 233.134C438.139 229.332 440.014 224.525 440.014 218.717C440.014 212.79 438.082 207.92 434.222 204.113C430.374 200.311 425.65 198.405 420.056 198.405C414.358 198.405 409.582 200.311 405.722 204.113Z" fill="black"/>
<path d="M518.195 261.655V175.592H547.883V188.009H548.216C548.451 187.566 548.82 187.009 549.32 186.342C549.82 185.665 550.909 184.488 552.591 182.821C554.268 181.144 556.055 179.634 557.945 178.301C559.846 176.957 562.305 175.754 565.32 174.696C568.346 173.629 571.43 173.092 574.57 173.092C577.805 173.092 580.987 173.54 584.112 174.426C587.247 175.316 589.549 176.212 591.008 177.113L593.341 178.446L580.945 203.613C577.247 200.488 572.102 198.926 565.508 198.926C561.924 198.926 558.846 199.712 556.279 201.28C553.706 202.837 551.888 204.733 550.82 206.967C549.763 209.207 549.008 211.108 548.549 212.676C548.102 214.249 547.883 215.478 547.883 216.363V261.655H518.195Z" fill="black"/>
<path d="M601.474 251.426C591.917 242.926 587.141 232.025 587.141 218.717C587.141 205.4 592.11 194.467 602.058 185.926C612.016 177.374 624.318 173.092 638.974 173.092C653.402 173.092 665.563 177.4 675.454 186.009C685.355 194.624 690.308 205.525 690.308 218.717C690.308 231.915 685.464 242.79 675.787 251.342C666.12 259.9 653.849 264.176 638.974 264.176C623.542 264.176 611.042 259.926 601.474 251.426ZM624.474 204.113C620.61 207.92 618.683 212.79 618.683 218.717C618.683 224.634 620.521 229.467 624.204 233.217C627.896 236.967 632.766 238.842 638.808 238.842C644.625 238.842 649.402 236.941 653.141 233.134C656.891 229.332 658.766 224.525 658.766 218.717C658.766 212.79 656.834 207.92 652.974 204.113C649.125 200.311 644.402 198.405 638.808 198.405C633.11 198.405 628.334 200.311 624.474 204.113Z" fill="black"/>
<path d="M882.884 173.092C887.801 173.092 892.66 173.655 897.468 174.78C902.27 175.894 905.853 177.004 908.218 178.113L911.738 179.801L902.009 199.259C895.301 195.676 888.926 193.884 882.884 193.884C879.52 193.884 877.139 194.254 875.738 194.988C874.348 195.712 873.655 197.082 873.655 199.092C873.655 199.54 873.707 199.983 873.822 200.426C873.931 200.874 874.155 201.295 874.488 201.696C874.822 202.087 875.124 202.42 875.405 202.696C875.697 202.978 876.176 203.28 876.843 203.613C877.509 203.946 878.035 204.196 878.426 204.363C878.827 204.53 879.473 204.79 880.363 205.134C881.249 205.467 881.916 205.717 882.363 205.884C882.822 206.051 883.577 206.301 884.634 206.634C885.702 206.967 886.514 207.191 887.072 207.301C890.541 208.316 893.561 209.441 896.134 210.676C898.702 211.9 901.41 213.571 904.259 215.696C907.119 217.821 909.327 220.509 910.884 223.759C912.452 226.999 913.238 230.686 913.238 234.821C913.238 254.394 899.645 264.176 872.468 264.176C866.327 264.176 860.488 263.222 854.947 261.321C849.405 259.42 845.405 257.519 842.947 255.613L839.259 252.592L851.343 232.301C852.228 233.082 853.405 234.004 854.863 235.071C856.322 236.129 858.947 237.582 862.738 239.426C866.541 241.275 869.848 242.196 872.655 242.196C878.791 242.196 881.863 240.129 881.863 235.988C881.863 234.087 881.077 232.608 879.509 231.551C877.952 230.483 875.301 229.28 871.551 227.946C867.801 226.603 864.863 225.363 862.738 224.238C857.374 221.446 853.124 218.295 849.988 214.78C846.863 211.254 845.301 206.582 845.301 200.759C845.301 192.04 848.681 185.249 855.447 180.384C862.207 175.525 871.353 173.092 882.884 173.092Z" fill="black"/>
<mask id="mask0_171_293" style="mask-type:luminance" maskUnits="userSpaceOnUse" x="740" y="9" width="81" height="62">
<path d="M740.635 9.0105H820.213V70.3438H740.635V9.0105Z" fill="white"/>
</mask>
<g mask="url(#mask0_171_293)">
<path d="M780.229 10.323C772.312 13.3543 747.947 25.4689 747.947 25.4689C741.244 29.1043 740.635 44.2553 740.635 51.5262C740.635 56.3699 740.635 63.6407 742.463 68.4897C746.729 69.7032 757.692 70.3074 769.874 64.8543C769.874 60.6147 769.265 55.1616 769.265 51.5262C769.265 45.4637 769.265 33.3491 770.484 28.5001C773.531 29.7137 777.182 31.5314 780.229 33.3491C782.057 34.5574 789.973 40.6199 796.676 45.4637L819.822 26.6824C813.729 21.8335 807.64 16.3803 806.421 15.172C798.499 10.9272 788.755 7.29179 780.229 10.323Z" fill="black"/>
</g>
<mask id="mask1_171_293" style="mask-type:luminance" maskUnits="userSpaceOnUse" x="805" y="33" width="82" height="71">
<path d="M805.546 33.0105H886.822V103.047H805.546V33.0105Z" fill="white"/>
</mask>
<g mask="url(#mask1_171_293)">
<path d="M806.421 53.3438C832.005 73.9427 867.942 103.026 867.942 103.026L886.822 80.6042C886.822 80.6042 852.713 53.3438 828.958 33.9531C825.302 37.5885 816.776 45.4635 806.421 53.3438Z" fill="black"/>
</g>
<mask id="mask2_171_293" style="mask-type:luminance" maskUnits="userSpaceOnUse" x="746" y="0" width="141" height="95">
<path d="M746.879 0H886.822V94.3438H746.879V0Z" fill="white"/>
</mask>
<g mask="url(#mask2_171_293)">
<path d="M867.942 0.020752L886.822 22.4426C886.822 22.4426 812.51 81.8176 805.812 86.6666C799.109 91.5103 788.755 95.1458 780.229 92.7239C771.702 90.302 747.947 77.578 747.947 77.578C747.947 77.578 751.598 78.1822 756.473 78.1822C761.348 78.1822 771.093 75.7603 780.229 69.703C789.364 63.6405 867.942 0.020752 867.942 0.020752Z" fill="black"/>
</g>
<mask id="mask3_171_293" style="mask-type:luminance" maskUnits="userSpaceOnUse" x="693" y="169" width="81" height="62">
<path d="M693.932 169.01H773.546V230.344H693.932V169.01Z" fill="white"/>
</mask>
<g mask="url(#mask3_171_293)">
<path d="M733.52 171.182C725.604 174.214 701.239 186.333 701.239 186.333C694.541 189.969 693.932 205.115 693.932 212.385C693.932 217.234 693.932 224.505 695.76 229.349C700.02 230.563 710.984 231.167 723.166 225.714C723.166 221.474 722.557 216.021 722.557 212.385C722.557 206.328 722.557 194.208 723.775 189.359C726.822 190.573 730.479 192.391 733.52 194.208C735.348 195.422 743.27 201.479 749.968 206.328L773.114 187.542C767.025 182.698 760.932 177.245 759.713 176.031C751.796 171.792 742.051 168.156 733.52 171.182Z" fill="black"/>
</g>
<mask id="mask4_171_293" style="mask-type:luminance" maskUnits="userSpaceOnUse" x="758" y="194" width="83" height="70">
<path d="M758.879 194.344H840.114V263.911H758.879V194.344Z" fill="white"/>
</mask>
<g mask="url(#mask4_171_293)">
<path d="M759.713 214.203C785.296 234.802 821.234 263.885 821.234 263.885L840.114 241.469C840.114 241.469 806.005 214.203 782.249 194.812C778.598 198.448 770.067 206.328 759.713 214.203Z" fill="black"/>
</g>
<mask id="mask5_171_293" style="mask-type:luminance" maskUnits="userSpaceOnUse" x="700" y="160" width="141" height="96">
<path d="M700.213 160.859H840.114V255.677H700.213V160.859Z" fill="white"/>
</mask>
<g mask="url(#mask5_171_293)">
<path d="M821.234 160.885L840.114 183.302C840.114 183.302 765.806 242.677 759.103 247.526C752.405 252.375 742.051 256.011 733.52 253.583C724.994 251.162 701.239 238.438 701.239 238.438C701.239 238.438 704.895 239.042 709.765 239.042C714.64 239.042 724.385 236.62 733.52 230.563C742.661 224.505 821.234 160.885 821.234 160.885Z" fill="black"/>
</g>
</svg>
